PathFileType	4	(X/Y/Z)	/Users/itak/Documents/Research/Walk-IL/dataset/trc/00551_00009.trc
DataRate	CameraRate	NumFrames	NumMarkers	Units	OrigDataRate	OrigDataStartFrame	OrigNumFrames
100.000000	100.000000	4	53	mm	100.000000	122	489
Frame#	Time	RPSI			LPSI			L3			STRN			T10			C7			CLAV			RBAK			LBAK			LSHO			LUPA			LAEL			LAOL			LWTS			LWPS			LFRA			LIFD			LHPS			LHTS			RSHO			RUPA			RAEL			RAOL			RWTS			RWPS			RFRA			RIFD			RHTS			RHPS			RBHD			LFHD			RFHD			LBHD			LHIP			RHIP			RASI			LASI			LKNE			LTHI			LANK			LTIP			LTOE			LMT1			LMT5			LHEE			RKNE			RTHI			RANK			RTIP			RTOE			RMT1			RMT5			RHEE			
		X1	Y1	Z1	X2	Y2	Z2	X3	Y3	Z3	X4	Y4	Z4	X5	Y5	Z5	X6	Y6	Z6	X7	Y7	Z7	X8	Y8	Z8	X9	Y9	Z9	X10	Y10	Z10	X11	Y11	Z11	X12	Y12	Z12	X13	Y13	Z13	X14	Y14	Z14	X15	Y15	Z15	X16	Y16	Z16	X17	Y17	Z17	X18	Y18	Z18	X19	Y19	Z19	X20	Y20	Z20	X21	Y21	Z21	X22	Y22	Z22	X23	Y23	Z23	X24	Y24	Z24	X25	Y25	Z25	X26	Y26	Z26	X27	Y27	Z27	X28	Y28	Z28	X29	Y29	Z29	X30	Y30	Z30	X31	Y31	Z31	X32	Y32	Z32	X33	Y33	Z33	X34	Y34	Z34	X35	Y35	Z35	X36	Y36	Z36	X37	Y37	Z37	X38	Y38	Z38	X39	Y39	Z39	X40	Y40	Z40	X41	Y41	Z41	X42	Y42	Z42	X43	Y43	Z43	X44	Y44	Z44	X45	Y45	Z45	X46	Y46	Z46	X47	Y47	Z47	X48	Y48	Z48	X49	Y49	Z49	X50	Y50	Z50	X51	Y51	Z51	X52	Y52	Z52	X53	Y53	Z53	

123	1.22	-858.6167602539062	1009.845764160156	224.5470275878906	-847.9246826171875	1014.517456054688	90.92536163330078	-845.3223876953125	1109.05419921875	151.8380737304688	-587.6906127929688	1280.300903320312	155.7402038574219	-838.6434936523438	1234.087646484375	150.6773986816406	-770.8143310546875	1502.411376953125	166.8793182373047	-599.1709594726562	1393.728271484375	158.4304351806641	-848.9453735351562	1382.2451171875	249.1863403320312	-805.2251586914062	1453.032836914062	73.29808807373047	-703.5658569335938	1475.0126953125	-4.270484924316406	-716.0820922851562	1353.885864257812	-90.25225067138672	-698.3809204101562	1131.895751953125	-119.8957366943359	-791.6693725585938	1124.564086914062	-80.53937530517578	-612.742919921875	888.034423828125	-62.96281814575195	-645.2335205078125	866.5006103515625	-140.7115783691406	-674.5408325195312	1045.621337890625	-124.9247817993164	-616.7547607421875	718.7743530273438	-68.68675231933594	-638.5610961914062	806.4030151367188	-131.8274536132812	-594.1475219726562	810.9216918945312	-80.60142517089844	-716.078369140625	1460.903564453125	322.6761169433594	-742.7294311523438	1398.257080078125	389.52734375	-781.8526000976562	1111.8828125	434.3440551757812	-837.114501953125	1100.172973632812	403.9320983886719	-669.2589111328125	878.1129150390625	404.7991638183594	-720.8255615234375	862.4920654296875	467.5552978515625	-777.1251220703125	1055.763305664062	442.0761413574219	-675.9755249023438	703.6309204101562	410.5950927734375	-652.9357299804688	783.615234375	420.4082336425781	-711.8643188476562	786.3699951171875	464.3664245605469	-700.9257202148438	1670.473999023438	238.2007598876953	-548.4943237304688	1706.191284179688	101.5319290161133	-564.3707885742188	1700.748168945312	244.5453033447266	-676.0560913085938	1675.114013671875	74.18431091308594	-727.0372924804688	929.5037231445312	-38.91565704345703	-735.0888671875	942.0496215820312	351.3184814453125	-651.42236328125	967.2567749023438	287.6349182128906	-644.5235595703125	947.8339233398438	13.77302169799805	-759.8173217773438	485.0354309082031	40.60034942626953	-735.1146240234375	645.9963989257812	-2.8530113697052	-875.723388671875	30.40314102172852	79.63873291015625	-846.387451171875	246.8206481933594	53.78378677368164	-664.0701293945312	39.77360916137695	129.63232421875	-734.0292358398438	41.3664665222168	167.845947265625	-753.57763671875	34.747802734375	62.42193222045898	-943.6878051757812	35.16199493408203	137.8014984130859	-562.2269287109375	529.0419311523438	322.0705871582031	-658.785400390625	801.836669921875	351.1189575195312	-620.1268310546875	47.53397369384766	322.5840148925781	-547.371337890625	380.6427917480469	317.3622131347656	-404.6334533691406	79.01613616943359	292.3168029785156	-464.1425170898438	70.02363586425781	247.7404632568359	-491.1141357421875	58.94854736328125	347.6957702636719	-670.4530029296875	39.72831344604492	262.4571228027344	
124	1.23	-854.8562622070312	1009.20654296875	224.6319885253906	-844.1957397460938	1013.921691894531	91.02334594726562	-841.6316528320312	1108.537353515625	151.9026489257812	-583.7183227539062	1279.585693359375	155.8730010986328	-834.7841186523438	1233.555053710938	150.7037811279297	-766.673095703125	1501.813354492188	166.9163055419922	-595.1078491210938	1392.961669921875	158.6739501953125	-844.9432983398438	1381.732543945312	249.1648559570312	-801.0765991210938	1452.46875	73.25867462158203	-699.2550659179688	1474.343872070312	-4.17202615737915	-711.5543212890625	1353.296508789062	-90.18025970458984	-693.20458984375	1131.45849609375	-120.0209884643555	-786.8023071289062	1123.779174804688	-81.39617919921875	-606.2385864257812	888.469482421875	-61.80036163330078	-637.9036254882812	866.4452514648438	-139.7786865234375	-668.7318725585938	1045.36572265625	-124.7143859863281	-608.8413696289062	718.970458984375	-67.19384002685547	-630.7796020507812	806.3995971679688	-130.6209716796875	-586.7257080078125	811.6360473632812	-79.16045379638672	-712.0400390625	1460.314331054688	322.7593994140625	-738.79345703125	1397.64013671875	389.5774230957031	-778.302734375	1111.297729492188	434.3031311035156	-833.6148681640625	1099.757202148438	403.8876037597656	-666.5128784179688	877.063720703125	404.9294738769531	-718.1304931640625	861.7216796875	467.7085571289062	-773.7748413085938	1055.14599609375	442.0398864746094	-674.1710205078125	702.6306762695312	410.8127746582031	-650.727294921875	782.49658203125	420.5193786621094	-709.57080078125	785.5540771484375	464.578125	-696.7079467773438	1669.752075195312	238.3836975097656	-544.1204833984375	1705.470581054688	101.8731536865234	-560.1087036132812	1699.998291015625	244.9061737060547	-671.6858520507812	1674.46826171875	74.40255737304688	-724.4468383789062	929.794921875	-39.4898681640625	-731.2825927734375	941.6096801757812	351.4113159179688	-647.569580078125	966.6915893554688	287.6401672363281	-640.87060546875	947.1644897460938	13.77566337585449	-757.944580078125	484.6869506835938	40.69144058227539	-732.2872314453125	645.4290771484375	-2.496239423751831	-875.7205200195312	30.38999557495117	79.67613983154297	-845.5510864257812	246.7313995361328	53.86903762817383	-664.0620727539062	39.72963714599609	129.6420288085938	-734.0257568359375	41.35147857666016	167.8694763183594	-753.6038818359375	34.74217224121094	62.41049194335938	-943.6915893554688	35.21373748779297	137.8523254394531	-556.9036865234375	529.299072265625	321.7039184570312	-654.7146606445312	801.5794677734375	351.3396606445312	-603.3577880859375	46.39504241943359	321.9279174804688	-538.99169921875	381.3501281738281	316.8834838867188	-388.8471984863281	82.14292144775391	290.12060546875	-448.405029296875	72.22090148925781	245.9438781738281	-474.3074645996094	59.99690628051758	346.0234985351562	-653.5774536132812	37.6533203125	261.7552185058594	
125	1.24	-850.9721069335938	1008.497436523438	224.7441558837891	-840.3284912109375	1013.264953613281	91.15364074707031	-837.8170776367188	1107.984252929688	151.9930725097656	-579.6375732421875	1278.821411132812	156.0654602050781	-830.8046264648438	1232.9775390625	150.7541046142578	-762.4191284179688	1501.174560546875	166.9885559082031	-590.9329833984375	1392.179077148438	158.9553680419922	-840.8345336914062	1381.185913085938	249.1754455566406	-796.8065185546875	1451.86328125	73.26045989990234	-694.8346557617188	1473.632202148438	-4.032504558563232	-706.892822265625	1352.666259765625	-90.07077026367188	-687.9088745117188	1130.986694335938	-120.1146926879883	-781.7899780273438	1122.955932617188	-82.20965576171875	-599.61328125	888.8758544921875	-60.64784240722656	-630.4674682617188	866.3715209960938	-138.8480224609375	-662.8072509765625	1045.07763671875	-124.4719619750977	-600.8856811523438	719.1032104492188	-65.79083251953125	-622.9207153320312	806.3912353515625	-129.4256896972656	-579.2106323242188	812.3554077148438	-77.77629852294922	-707.9019775390625	1459.678466796875	322.882080078125	-734.754638671875	1396.991333007812	389.661865234375	-774.6515502929688	1110.683715820312	434.31640625	-830.0043334960938	1099.307006835938	403.90478515625	-663.5716552734375	876.0558471679688	405.1090087890625	-715.2630615234375	860.9442749023438	467.9068603515625	-770.3165283203125	1054.502319335938	442.0610656738281	-672.1178588867188	701.64404296875	411.0684204101562	-648.30517578125	781.4251708984375	420.6515808105469	-707.0670776367188	784.7396240234375	464.8213195800781	-692.3846435546875	1669.007080078125	238.5848541259766	-539.6262817382812	1704.694213867188	102.2279357910156	-555.71728515625	1699.228271484375	245.2900543212891	-667.1864013671875	1673.763549804688	74.63915252685547	-721.66064453125	930.0070190429688	-40.01627731323242	-727.270751953125	941.1730346679688	351.6026306152344	-643.6060180664062	966.0961303710938	287.715087890625	-637.0401000976562	946.49755859375	13.82087421417236	-755.9192504882812	484.3243713378906	40.81401443481445	-729.3074340820312	644.8544921875	-2.096452713012695	-875.7161865234375	30.36590385437012	79.72487640380859	-844.62841796875	246.6283111572266	53.99653244018555	-664.0571899414062	39.68087005615234	129.6605072021484	-734.0132446289062	41.33430480957031	167.8990783691406	-753.6236572265625	34.74547576904297	62.39758682250977	-943.6947631835938	35.27746200561523	137.9081573486328	-551.4520263671875	529.525146484375	321.4121704101562	-650.5215454101562	801.2702026367188	351.5644226074219	-586.7268676757812	45.49649047851562	321.193603515625	-530.5689697265625	382.0755920410156	316.4508666992188	-373.2815551757812	85.51679992675781	287.9888610839844	-432.8098754882812	74.68537902832031	244.1903839111328	-457.6944580078125	61.2854118347168	344.3746948242188	-636.8706665039062	35.86383819580078	261.0309448242188	
126	1.25	-846.9583129882812	1007.71826171875	224.8878479003906	-836.324462890625	1012.545043945312	91.32073974609375	-833.8742065429688	1107.392700195312	152.1097259521484	-575.447509765625	1278.009399414062	156.3174285888672	-826.70703125	1232.355590820312	150.8309326171875	-758.0492553710938	1500.494506835938	167.0959930419922	-586.64208984375	1391.377319335938	159.2720489501953	-836.6166381835938	1380.602172851562	249.2194519042969	-792.414306640625	1451.21728515625	73.30615997314453	-690.3047485351562	1472.880615234375	-3.850400447845459	-702.0946655273438	1351.9970703125	-89.92461395263672	-682.489013671875	1130.478881835938	-120.1732864379883	-776.6286010742188	1122.095947265625	-82.96395111083984	-592.8698120117188	889.2446899414062	-59.52013778686523	-622.942138671875	866.2723388671875	-137.924072265625	-656.7733154296875	1044.753051757812	-124.1989669799805	-592.84130859375	719.2271728515625	-64.45255279541016	-615.000732421875	806.3707885742188	-128.2539825439453	-571.6212768554688	813.0559692382812	-76.46726226806641	-703.668701171875	1458.987915039062	323.0465087890625	-730.6136474609375	1396.310791015625	389.7822570800781	-770.900146484375	1110.0361328125	434.3831176757812	-826.287841796875	1098.81787109375	403.9831848144531	-660.44580078125	875.0843505859375	405.3384094238281	-712.22509765625	860.1594848632812	468.1506652832031	-766.7525024414062	1053.830078125	442.1412658691406	-669.7960815429688	700.670654296875	411.3679504394531	-645.64697265625	780.392578125	420.8213500976562	-704.350830078125	783.9251708984375	465.0970153808594	-687.950927734375	1668.236938476562	238.8083190917969	-535.018798828125	1703.86279296875	102.5943069458008	-551.2014770507812	1698.434204101562	245.6878356933594	-662.5626220703125	1673.001220703125	74.89661407470703	-718.5159912109375	930.0164794921875	-40.38494873046875	-723.0096435546875	940.75146484375	351.8942565917969	-639.5272216796875	965.4739990234375	287.8556823730469	-633.0411987304688	945.8240966796875	13.9058256149292	-753.7238159179688	483.9486389160156	40.9709587097168	-726.203857421875	644.2849731445312	-1.678436398506165	-875.708740234375	30.33379364013672	79.78508758544922	-843.6216430664062	246.5260467529297	54.15568542480469	-664.0537109375	39.62958526611328	129.6872406005859	-733.9921264648438	41.31550216674805	167.9315948486328	-753.6355590820312	34.75644302368164	62.38410949707031	-943.69482421875	35.3511848449707	137.9666748046875	-545.8576049804688	529.716552734375	321.1892700195312	-646.1768188476562	800.9129638671875	351.7878723144531	-570.320068359375	44.82748413085938	320.3753662109375	-522.1112060546875	382.8136901855469	316.0599975585938	-357.9816589355469	89.07415771484375	286.0105895996094	-417.4115600585938	77.37725830078125	242.5450286865234	-441.3855285644531	62.81604385375977	342.823974609375	-620.4668579101562	34.39096069335938	260.3275451660156	
